# xmcd
#
# Track frame offsets:
#	150
#	10322
#	20494
#	31136
#	41854
#	52750
#	63972
#	75362
#	86891
#	98516
#	110149
#	122176
#	134485
#	144631
#	157773
#	170954
#	181923
#	193015
#	204854
#	217093
#	229392
#
# Disc length: 3222 seconds
# Revision: 0
# Processed by: cddbd v1.5.2PL0 Copyright (c) Steve Scherf et al.
# Submitted via: dBpowerAMP V12.0
#
DISCID=240c9415
DTITLE=Eddie Holland - The Very Best Of Eddie Holland
DYEAR=1965
DGENRE=R&B
TTITLE0=It Moves Me
TTITLE1=Merry-Go-Round
TTITLE2=Just A Few More Days
TTITLE3=If it's Love [It's Alright]
TTITLE4=Jamie
TTITLE5=It's Not Too Late
TTITLE6=[If] Cleopatra Took A Chance
TTITLE7=Leaving Here
TTITLE8=What About Me
TTITLE9=Take A Chace On Me
TTITLE10=You Deserve What You Got
TTITLE11=Take Me In Your Arms
TTITLE12=Pretty Little Angel Face
TTITLE13=Last Night I Had A Vision
TTITLE14=Darling, I Hum A Song
TTITLE15=Candy To Me
TTITLE16=Just Ain't Enough
TTITLE17=Baby Shake
TTITLE18=Brenda
TTITLE19=I'm On The Outside Looking In
TTITLE20=I Couldn't Cry If I Wanted To
EXTD=
EXTT0=
EXTT1=
EXTT2=
EXTT3=
EXTT4=
EXTT5=
EXTT6=
EXTT7=
EXTT8=
EXTT9=
EXTT10=
EXTT11=
EXTT12=
EXTT13=
EXTT14=
EXTT15=
EXTT16=
EXTT17=
EXTT18=
EXTT19=
EXTT20=
PLAYORDER=
